<svg width="41" height="41" viewBox="0 0 41 41" fill="none" xmlns="http://www.w3.org/2000/svg">
<path d="M35.875 18.375C35.875 19.0625 35.3125 19.625 34.625 19.625H21.375C20.6875 19.625 20.125 19.0625 20.125 18.375V5.125C20.125 4.4375 20.6875 3.875 21.375 3.875H34.625C35.3125 3.875 35.875 4.4375 35.875 5.125V18.375Z" fill="#19C37D"/>
<path d="M13.875 35.875C13.875 36.5625 13.3125 37.125 12.625 37.125H6.375C5.6875 37.125 5.125 36.5625 5.125 35.875V29.625C5.125 28.9375 5.6875 28.375 6.375 28.375H12.625C13.3125 28.375 13.875 28.9375 13.875 29.625V35.875Z" fill="#19C37D"/>
<path d="M35.875 28.375H21.375C20.6875 28.375 20.125 28.9375 20.125 29.625V35.875C20.125 36.5625 20.6875 37.125 21.375 37.125H34.625C35.3125 37.125 35.875 36.5625 35.875 35.875V29.625C35.875 28.9375 35.3125 28.375 34.625 28.375H35.875Z" fill="#19C37D"/>
<path d="M13.875 3.875H6.375C5.6875 3.875 5.125 4.4375 5.125 5.125V21.375C5.125 22.0625 5.6875 22.625 6.375 22.625H12.625C13.3125 22.625 13.875 22.0625 13.875 21.375V5.125C13.875 4.4375 13.3125 3.875 12.625 3.875H13.875Z" fill="#19C37D"/>
</svg>
