<svg width="128" height="128" viewBox="0 0 128 128" fill="none" xmlns="http://www.w3.org/2000/svg">
	<defs>
		<linearGradient id="jarvisRing" x1="16" y1="16" x2="112" y2="112" gradientUnits="userSpaceOnUse">
			<stop offset="0" stop-color="#57E3FF" />
			<stop offset="1" stop-color="#00A5D8" />
		</linearGradient>
		<radialGradient id="jarvisCore" cx="0" cy="0" r="1" gradientUnits="userSpaceOnUse" gradientTransform="translate(64 64) rotate(90) scale(48)">
			<stop offset="0" stop-color="#37E6FF" stop-opacity="0.32" />
			<stop offset="1" stop-color="#37E6FF" stop-opacity="0" />
		</radialGradient>
	</defs>

	<circle cx="64" cy="64" r="62" stroke="url(#jarvisRing)" stroke-width="2" />
	<circle cx="64" cy="64" r="52" stroke="url(#jarvisRing)" stroke-opacity="0.75" stroke-width="1.5" />
	<circle cx="64" cy="64" r="40" stroke="url(#jarvisRing)" stroke-opacity="0.55" stroke-width="1.25" />
	<circle cx="64" cy="64" r="24" fill="url(#jarvisCore)" stroke="url(#jarvisRing)" stroke-opacity="0.7" />

	<path d="M64 16V112M16 64H112" stroke="url(#jarvisRing)" stroke-opacity="0.35" stroke-width="1" />
	<path d="M31 44L64 26L97 44V84L64 102L31 84V44Z" stroke="url(#jarvisRing)" stroke-opacity="0.55" stroke-width="1.5" />

	<circle cx="64" cy="26" r="2.6" fill="#58EAFF" />
	<circle cx="97" cy="44" r="2.6" fill="#58EAFF" />
	<circle cx="97" cy="84" r="2.6" fill="#58EAFF" />
	<circle cx="64" cy="102" r="2.6" fill="#58EAFF" />
	<circle cx="31" cy="84" r="2.6" fill="#58EAFF" />
	<circle cx="31" cy="44" r="2.6" fill="#58EAFF" />

	<path d="M58 50H71C74.3137 50 77 52.6863 77 56V60C77 63.3137 74.3137 66 71 66H62V77H56V56C56 52.6863 58.6863 50 62 50H64" stroke="#70ECFF" stroke-width="3" stroke-linecap="round" stroke-linejoin="round" />
</svg>
